<svg width="1024" height="1024" viewBox="0 0 1024 1024" fill="none" xmlns="http://www.w3.org/2000/svg">
<path fill-rule="evenodd" clip-rule="evenodd" d="M512.613 105.003C512.661 105.003 512.71 105.003 512.758 105.004C523.077 105.097 533.492 107.299 543.352 111.783C551.336 115.394 558.74 120.402 565.16 126.7C565.206 126.745 565.251 126.79 565.296 126.834C565.454 126.989 565.611 127.145 565.767 127.302C565.881 127.416 565.994 127.53 566.107 127.644C566.163 127.701 566.219 127.758 566.274 127.814C571.087 132.724 575.147 138.21 578.405 144.09L958.217 802.237C964.222 811.707 968.19 822.596 969.506 834.288C972.854 863.458 959.046 893.191 932.011 908.807C918.718 916.485 904.07 919.686 889.811 918.879H134.191C119.931 919.686 105.283 916.485 91.9908 908.807C64.9844 893.208 51.1756 863.522 54.4829 834.383C55.7884 822.655 59.7625 811.733 65.7832 802.237L445.605 144.072C448.868 138.188 452.933 132.7 457.752 127.788C457.781 127.759 457.81 127.73 457.839 127.7C457.975 127.561 458.112 127.422 458.25 127.284C458.401 127.133 458.552 126.984 458.703 126.834C458.749 126.79 458.794 126.745 458.839 126.7C465.271 120.391 472.69 115.377 480.689 111.764C490.537 107.292 500.938 105.097 511.242 105.004C511.291 105.003 511.339 105.003 511.388 105.003C511.524 105.002 511.66 105 511.796 105H512.204C512.34 105 512.476 105.002 512.613 105.003ZM261.593 766.897H762.408L512 332.984L261.593 766.897Z" fill="url(#paint0_linear_76_2)"/>
<path fill-rule="evenodd" clip-rule="evenodd" d="M512.613 105.003C512.661 105.003 512.71 105.003 512.758 105.004C523.077 105.097 533.492 107.299 543.352 111.783C551.336 115.394 558.74 120.402 565.16 126.7C565.206 126.745 565.251 126.79 565.296 126.834C565.454 126.989 565.611 127.145 565.767 127.302C565.881 127.416 565.994 127.53 566.107 127.644C566.163 127.701 566.219 127.758 566.274 127.814C571.087 132.724 575.147 138.21 578.405 144.09L958.217 802.237C964.222 811.707 968.19 822.596 969.506 834.288C972.854 863.458 959.046 893.191 932.011 908.807C918.718 916.485 904.07 919.686 889.811 918.879H134.191C119.931 919.686 105.283 916.485 91.9908 908.807C64.9844 893.208 51.1756 863.522 54.4829 834.383C55.7884 822.655 59.7625 811.733 65.7832 802.237L445.605 144.072C448.868 138.188 452.933 132.7 457.752 127.788C457.781 127.759 457.81 127.73 457.839 127.7C457.975 127.561 458.112 127.422 458.25 127.284C458.401 127.133 458.552 126.984 458.703 126.834C458.749 126.79 458.794 126.745 458.839 126.7C465.271 120.391 472.69 115.377 480.689 111.764C490.537 107.292 500.938 105.097 511.242 105.004C511.291 105.003 511.339 105.003 511.388 105.003C511.524 105.002 511.66 105 511.796 105H512.204C512.34 105 512.476 105.002 512.613 105.003ZM261.593 766.897H762.408L512 332.984L261.593 766.897Z" fill="url(#paint1_linear_76_2)"/>
<defs>
<linearGradient id="paint0_linear_76_2" x1="512" y1="162.5" x2="133.244" y2="848.635" gradientUnits="userSpaceOnUse">
<stop stop-color="#246ED1"/>
<stop offset="1" stop-color="#5446C0"/>
</linearGradient>
<linearGradient id="paint1_linear_76_2" x1="379.5" y1="557.5" x2="761.5" y2="763.5" gradientUnits="userSpaceOnUse">
<stop stop-color="#D76263" stop-opacity="0"/>
<stop offset="0.5" stop-color="#E27653" stop-opacity="0"/>
<stop offset="0.504808" stop-color="#E47A50"/>
<stop offset="1" stop-color="#F1913C"/>
</linearGradient>
</defs>
</svg>
